<?xml version="1.0" standalone="no"?>
<!DOCTYPE svg PUBLIC "-//W3C//DTD SVG 20010904//EN"
 "http://www.w3.org/TR/2001/REC-SVG-20010904/DTD/svg10.dtd">
<svg version="1.0" xmlns="http://www.w3.org/2000/svg"
 width="578.000000pt" height="578.000000pt" viewBox="0 0 578.000000 578.000000"
 preserveAspectRatio="xMidYMid meet">
<metadata>
Created by potrace 1.11, written by Peter Selinger 2001-2013
</metadata>
<g transform="translate(0.000000,578.000000) scale(0.100000,-0.100000)"
fill="#000000" stroke="none">
<path d="M2087 5760 c-27 -10 -64 -30 -83 -45 -34 -26 -108 -119 -122 -153 -4
-10 -32 -60 -63 -112 -49 -81 -378 -645 -429 -735 -9 -16 -88 -151 -175 -300
-87 -148 -169 -290 -183 -315 -14 -25 -45 -79 -70 -120 -25 -41 -55 -93 -67
-115 -13 -22 -45 -78 -72 -125 -405 -694 -410 -704 -426 -796 -19 -112 6 -183
152 -432 84 -144 731 -1255 755 -1297 9 -16 27 -48 40 -70 61 -106 311 -534
327 -560 21 -36 86 -148 130 -225 17 -30 40 -67 50 -82 10 -14 19 -29 19 -33
0 -15 71 -115 106 -149 140 -137 347 -117 458 43 l28 40 -157 273 c-87 150
-169 293 -183 318 -14 25 -59 104 -100 175 -41 72 -84 146 -95 165 -10 19 -45
80 -77 135 -32 55 -67 116 -78 135 -11 19 -45 80 -77 135 -31 55 -69 120 -83
145 -14 25 -42 74 -64 109 -21 34 -38 65 -38 67 0 2 -110 194 -243 426 -311
540 -325 566 -331 609 -6 52 17 104 155 344 69 121 268 468 441 770 174 303
338 589 365 636 28 48 53 93 57 100 4 8 12 23 19 34 7 11 27 47 46 80 19 33
90 156 158 273 68 118 123 216 123 218 0 2 11 23 26 45 14 22 33 55 43 72 10
18 35 62 55 100 l38 67 -36 45 c-66 80 -134 116 -225 121 -47 2 -80 -3 -114
-16z"/>
<path d="M3505 5767 c-66 -22 -100 -44 -155 -99 -72 -72 -120 -147 -305 -468
-192 -333 -279 -485 -400 -695 -51 -88 -102 -176 -112 -195 -28 -49 -162 -281
-248 -430 -40 -69 -82 -141 -92 -160 -11 -19 -81 -141 -155 -271 -75 -129
-149 -267 -166 -305 -100 -227 -82 -380 75 -650 23 -38 50 -85 61 -104 16 -29
244 -425 302 -525 9 -16 53 -93 97 -170 44 -77 123 -215 176 -307 53 -91 109
-188 123 -215 15 -26 44 -77 66 -112 21 -34 38 -64 38 -66 0 -2 26 -48 58
-102 32 -54 61 -105 65 -113 4 -8 17 -31 28 -50 12 -19 73 -125 137 -235 145
-253 188 -317 253 -382 59 -59 111 -88 184 -102 108 -20 217 10 296 83 39 36
111 128 151 191 29 46 241 414 316 547 11 18 106 184 212 368 106 184 202 351
213 370 10 19 52 91 92 160 63 109 276 479 333 580 11 19 43 76 72 125 127
217 161 306 166 436 4 104 -18 196 -75 309 -21 41 -152 275 -293 520 -140 245
-270 470 -287 500 -17 30 -35 62 -40 70 -14 23 -212 368 -244 425 -16 27 -39
68 -52 90 -12 22 -32 56 -43 75 -186 327 -346 601 -388 665 -71 107 -150 187
-218 220 -66 32 -178 42 -241 22z"/>
</g>
</svg>
